<svg xmlns="http://www.w3.org/2000/svg" xmlns:xlink="http://www.w3.org/1999/xlink" viewBox="0 0 106.46 211.36"><defs><style>.cls-1{fill:none;}.cls-2{fill:#bbd9d3;}.cls-3{fill:#ebf3f1;}.cls-4{fill:#dbeae6;}.cls-5{fill:#fff;}.cls-6{fill:#f9e8ea;}.cls-7{fill:#f4d5db;}.cls-8{fill:#e888b8;}.cls-9{fill:#f2a995;}.cls-10{fill:url(#New_Pattern_Swatch_17);}.cls-11{fill:#c2b59b;}.cls-12{fill:url(#New_Pattern_Swatch_21);}.cls-13{fill:#f15a2b;}.cls-14{fill:#fee4ca;}.cls-15{fill:#fdd1ac;}.cls-16{fill:#f3b687;fill-rule:evenodd;}.cls-17{fill:#f59292;opacity:0.5;}.cls-18{fill:#161a1d;}.cls-19{fill:#ae2d24;}.cls-19,.cls-20{opacity:0.2;}.cls-20{fill:#231f20;}</style><pattern id="New_Pattern_Swatch_17" data-name="New Pattern Swatch 17" width="58" height="58" patternTransform="translate(-128.05 367.25) scale(0.19)" patternUnits="userSpaceOnUse" viewBox="0 0 58 58"><rect class="cls-1" width="58" height="58"/><rect class="cls-2" x="-11.25" y="-11.25" width="80.5" height="80.5"/><path class="cls-3" d="M34.28,22.7s-3.92-1.59-5.12,3.69l-.1-.05c-1.33-6.45-5.49-3.65-5.49-3.65C18.48,28,28.89,35.8,28.89,35.8S39.6,27.87,34.28,22.7Z"/><path class="cls-4" d="M2.76-4.72S.15-5.78-.66-2.26l-.06,0c-.89-4.3-3.66-2.43-3.66-2.43C-7.77-1.21-.83,4-.83,4S6.31-1.27,2.76-4.72Z"/><path class="cls-4" d="M60.76-4.72s-2.61-1.06-3.42,2.46l-.06,0c-.89-4.3-3.66-2.43-3.66-2.43C50.23-1.21,57.17,4,57.17,4S64.31-1.27,60.76-4.72Z"/><path class="cls-4" d="M2.76,53.28S.15,52.22-.66,55.74l-.06,0c-.89-4.3-3.66-2.43-3.66-2.43C-7.77,56.79-.83,62-.83,62S6.31,56.73,2.76,53.28Z"/><path class="cls-4" d="M60.76,53.28s-2.61-1.06-3.42,2.46l-.06,0c-.89-4.3-3.66-2.43-3.66-2.43C50.23,56.79,57.17,62,57.17,62S64.31,56.73,60.76,53.28Z"/></pattern><pattern id="New_Pattern_Swatch_21" data-name="New Pattern Swatch 21" width="58" height="58" patternTransform="translate(-128.05 367.25) scale(0.19)" patternUnits="userSpaceOnUse" viewBox="0 0 58 58"><rect class="cls-1" width="58" height="58"/><rect class="cls-5" x="-11.25" y="-11.25" width="80.5" height="80.5"/><path class="cls-6" d="M34.28,22.7s-3.92-1.59-5.12,3.69l-.1-.05c-1.33-6.45-5.49-3.65-5.49-3.65C18.48,28,28.89,35.8,28.89,35.8S39.6,27.87,34.28,22.7Z"/><path class="cls-7" d="M2.76-4.72S.15-5.78-.66-2.26l-.06,0c-.89-4.3-3.66-2.43-3.66-2.43C-7.77-1.21-.83,4-.83,4S6.31-1.27,2.76-4.72Z"/><path class="cls-7" d="M60.76-4.72s-2.61-1.06-3.42,2.46l-.06,0c-.89-4.3-3.66-2.43-3.66-2.43C50.23-1.21,57.17,4,57.17,4S64.31-1.27,60.76-4.72Z"/><path class="cls-7" d="M2.76,53.28S.15,52.22-.66,55.74l-.06,0c-.89-4.3-3.66-2.43-3.66-2.43C-7.77,56.79-.83,62-.83,62S6.31,56.73,2.76,53.28Z"/><path class="cls-7" d="M60.76,53.28s-2.61-1.06-3.42,2.46l-.06,0c-.89-4.3-3.66-2.43-3.66-2.43C50.23,56.79,57.17,62,57.17,62S64.31,56.73,60.76,53.28Z"/></pattern></defs><title>finalAsset 3</title><g id="Layer_2" data-name="Layer 2"><g id="Layer_1-2" data-name="Layer 1"><path class="cls-8" d="M17.32,57.18l0,.1a4.08,4.08,0,0,0-.07-.93,1,1,0,0,0-.12-.33,2.88,2.88,0,0,0-.7.73A.94.94,0,0,1,17.32,57.18Z"/><path class="cls-8" d="M79.82,77.72c-.07-.26-.24-.4-.62-.15a1.8,1.8,0,0,0-.37.32,1.82,1.82,0,0,1,.3-.11A2.57,2.57,0,0,1,79.82,77.72Z"/><path class="cls-9" d="M49.55,131.76c-.62.07-1.24.13-1.85.17-.35,0-1,.12-1.75.21a3.66,3.66,0,0,0,0,2.1c.06.37.12.74.16,1.11a.19.19,0,0,1,.08.16v.37l3.18.25.29,0a1.39,1.39,0,0,1,0-.54A15.69,15.69,0,0,0,49.55,131.76Z"/><path class="cls-8" d="M48.5,115.7v.66a.88.88,0,0,0,.23-1.07c-.29-.62-1.35-.86-1.59,0a.88.88,0,0,0,0,.17c.35,0,.22.24,0,.39a1.88,1.88,0,0,0,.42.93v-1C47.54,115.5,48.5,115.29,48.5,115.7Z"/><path class="cls-10" d="M50,116.49a5.14,5.14,0,0,0,.51-3.84c-.14-.66-.4-1.56-1.11-1.82-1.15-.43-2.48,1.27-3,2.08s-.79,1.85-.18,2.34a1.6,1.6,0,0,1,.21-.32c.65-.76,2.44-1.2,3.07-.17.73,1.19-.39,2.08-1.47,2.39l-.09,0A1.47,1.47,0,0,0,50,116.49Z"/><path class="cls-10" d="M46.84,118.26a6.83,6.83,0,0,1-1.24-.17c1.52,1.69,4.44,1.41,6.26-.21,2.66-2.38,1.73-5.87-1.06-7.76a6.6,6.6,0,0,0-1.17-.63l-.92-.13-1-.2a3.26,3.26,0,0,0-1.7.65,6,6,0,0,0-2.17,3,3.78,3.78,0,0,0,.49,3.62c.22,0,.44,0,.46.07A3.66,3.66,0,0,0,45,117a4.64,4.64,0,0,0,2.52.83C48,117.88,47.06,118.27,46.84,118.26ZM46.11,116a1.28,1.28,0,0,1-1.13-.89,2.84,2.84,0,0,1,.46-2c.8-1.41,2.39-3,4.15-2.85,2.46.16,2.31,4.17,1.64,5.73a3.05,3.05,0,0,1-3.16,2A2.37,2.37,0,0,1,46.11,116Z"/><path class="cls-11" d="M60.34,137.31c0,.32-.93.29-1.36.3a73.11,73.11,0,0,1-8.87-.69c-2-.17-4-.35-6-.46a21.65,21.65,0,0,0-2.94-.11c-.37.31-1.15,0-.65-.44a1.48,1.48,0,0,1,.33-.18c-.42,0-.88-.22-1.15-.1-.17,3.83-.29,7.65-.56,11.49-.33,4.66-.5,9.25-.4,13.93.1,4.86-.31,9.82.41,14.65.47,3.13,1.22,6.28,1.8,9.4A10.52,10.52,0,0,0,42,188.85c1.11,1.68,2.25-.8,2.46-1.87.51-2.75.38-5.51,1.12-8.24,1.71-6.31,5.22-11.88,11.63-14a1.58,1.58,0,0,1,.65-.05c-.44,1.44-2.82,1.3-3.95,2.09-.27.19-3.18,2.53-3,2.76,1.63,1.83,3.33,4.54,3.57,7s-.43,5.09,0,7.57a5.6,5.6,0,0,0,2.37,4c3.15,2,3.32-4.42,3.42-6,.34-5.49,2.33-10.61,3-16.07a37.3,37.3,0,0,0-.52-11,91.37,91.37,0,0,1-1.49-14.29c0-1.13,0-2.25,0-3.38A1.1,1.1,0,0,0,60.34,137.31Z"/><path class="cls-9" d="M60.74,130.74a100.69,100.69,0,0,0-10.23.92,19.09,19.09,0,0,0,.26,2.92c.24,1.3-.34,1.62,1.28,1.79s3,.25,4.56.37c.84.06,2.85-.29,3.54.32a.53.53,0,0,1,.19.25,1.1,1.1,0,0,1,.94.07q0-3.42.19-6.83h-.29A.86.86,0,0,1,60.74,130.74Z"/><path class="cls-12" d="M70.18,100.68c-1.59-.21-5.38-.7-6.34.53a.31.31,0,0,1,.09.31l0,.12a.27.27,0,0,1-.09.15l-.06.15a.09.09,0,0,1,0,.06c-1.39,5.89-6.8,7.86-12.22,7.65l.21.14c1.56,1.15,3.12,3.07,2.75,5.15a5.43,5.43,0,0,1-2.9,3.7c-2.45,1.35-6.24,1.69-7.5-1.16a2.88,2.88,0,0,1-1.26-1.57,5.11,5.11,0,0,1,.75-4.38A6.32,6.32,0,0,1,46.93,109a15,15,0,0,1-6.82-3.54,13.59,13.59,0,0,1-3-3.56,5.07,5.07,0,0,1-.63-2.12c0-.22,0-1.94.29-2-1.5.3-1.88,3.09-2.09,4.25a56.75,56.75,0,0,0-.93,9.14.53.53,0,0,1,.34,0c1.09.69,3.77-1,4.53.22a3.51,3.51,0,0,1,.37,1.81.23.23,0,0,1,.08.19c0,.43,0,.86,0,1.28,0,0,.06.12,0,.22h0c-.17,5.61,0,11.23.06,16.85a1.79,1.79,0,0,1,.37-.12.88.88,0,0,1,.6-.52c.58-.18.85.19,1.37.35a10.64,10.64,0,0,0,3.38,0c2.1-.1,4.26-.29,6.36-.5,3.3-.33,6.64-.86,10-.9.42,0,.32.26.08.45h.29c.05-1.11.11-2.21.2-3.31.43-5.71.29-11.44.8-17.13,0-.29.84-.46,1-.21V110c2,0,4.09-.1,6.12-.31l0,0c-1.2-2.86.57-6,.66-8.9Z"/><path class="cls-9" d="M40.82,135.73a2.11,2.11,0,0,1,.38-.09.34.34,0,0,0,.12-.09.34.34,0,0,1-.12.09,11.23,11.23,0,0,1,1.68,0l2.25.13c-.17-1.17-.57-2.52-.13-3.56-.14.32-2.93.11-3.3.06a8.58,8.58,0,0,1-1.84-.47c-.07,1.26-.13,2.53-.19,3.79C39.94,135.51,40.4,135.73,40.82,135.73Z"/><path class="cls-8" d="M78.78,79.67a2,2,0,0,1,.34-.88.15.15,0,0,0-.24-.09A4.9,4.9,0,0,0,78.19,80a5.94,5.94,0,0,0-.16.58A2.3,2.3,0,0,1,78.78,79.67Z"/><path class="cls-13" d="M12.57,56l.13,0c.36.1.8-.24,1.28-1a10.22,10.22,0,0,0,1.19-2.66c-3.3.71-6.18,2.22-8,5.2a5.27,5.27,0,0,0,1.21,1.48,9.9,9.9,0,0,0,3.48,2.23l.59.18a5.1,5.1,0,0,0,1.08.17,4.21,4.21,0,0,1,.12-1.1,2.08,2.08,0,0,1,.4-2.15,7.57,7.57,0,0,1,.73-.88c.08-.18.17-.35.26-.51a1.08,1.08,0,0,0-.5-.53s-.15,0-.34.15a.37.37,0,0,1-.58-.13,1.36,1.36,0,0,1-1.12.26l-.17-.06a.37.37,0,0,1,.23-.71Z"/><path class="cls-13" d="M19.37,13.87a3.07,3.07,0,0,0-.66,2.24,5.71,5.71,0,0,0,.23,1.65,3.64,3.64,0,0,1,1.25-2.57,2,2,0,0,1,1.73-.31,3.19,3.19,0,0,1,1.19-2,3.31,3.31,0,0,1,1.61-.67,2.27,2.27,0,0,0-.46-.16A5.11,5.11,0,0,0,19.37,13.87Z"/><path class="cls-13" d="M88.7,75.82c.13.3.26.61.38.92a.38.38,0,0,1,0,.33.35.35,0,0,1-.26.18,2.38,2.38,0,0,0-2.06,1.94,1.73,1.73,0,0,0,1.13,2,2.57,2.57,0,0,0,2.32-.59l.09-.18a7,7,0,0,1,.53-.83,14,14,0,0,0-3-7.11A7.36,7.36,0,0,0,88.7,75.82Z"/><path class="cls-13" d="M45.7,4.84a16,16,0,0,1,2.56.42A7,7,0,0,1,50,6a8.47,8.47,0,0,0-5.21-3.83,9.73,9.73,0,0,0-3.48-.28,8.78,8.78,0,0,0-5.67,2.61,17.3,17.3,0,0,0-3,5.9l-.27.76a.56.56,0,0,1,0,.08,3.59,3.59,0,0,1,.88-1.68,1.79,1.79,0,0,1,.54-.35l.22,0h.1a3.17,3.17,0,0,1,.51-.94c1.32-1.67,3.6-2.44,5.2-2.89a15.16,15.16,0,0,1,2.82-.54A16.52,16.52,0,0,1,45.7,4.84Z"/><path class="cls-13" d="M103.45,38.58a14.55,14.55,0,0,0-5-4.55,9.05,9.05,0,0,0-6.17-1.24h-.16a.38.38,0,0,1-.28-.38,31.11,31.11,0,0,0-.47-6.2,24.46,24.46,0,0,0-2-5.8,25.3,25.3,0,0,0-6.72-8.64,38,38,0,0,0-6.64-4.36,34.63,34.63,0,0,0-7-3c-.48-.12-1-.23-1.4-.31A20.68,20.68,0,0,0,63,3.88a19.59,19.59,0,0,0-3.27.34c-2.87.58-4.48,1.88-4.78,3.86a.37.37,0,0,1-.17.26.39.39,0,0,1-.54-.14,12.12,12.12,0,0,0-3.87-4.35A21.64,21.64,0,0,0,43.51.53a13.56,13.56,0,0,0-7-.12,11.69,11.69,0,0,0-6,4c-1.38,1.68-3.26,4.22-3.52,7a.35.35,0,0,1-.14.25.33.33,0,0,1-.07.27.37.37,0,0,1-.39.13.4.4,0,0,1-.24-.2,1.8,1.8,0,0,0-1.23-1,4.63,4.63,0,0,0-2.5.23,13.78,13.78,0,0,0-3.88,2A10,10,0,0,0,15,23.27a.4.4,0,0,1-.08.38.37.37,0,0,1-.37.1l-.1,0a7.79,7.79,0,0,0-1.86-.81l-.09,0a9.26,9.26,0,0,0-8.07,1.85A9.9,9.9,0,0,0,.74,31.34a17,17,0,0,0,1.14,8c.58,1.5,1.94,4.12,4.68,4.85A5.54,5.54,0,0,0,8,44.35a.37.37,0,0,1,.36.41.09.09,0,0,1,0,.05l0,0a.36.36,0,0,1,.22.46.35.35,0,0,1-.45.25l-.1,0a2.88,2.88,0,0,0-1.68.31A3.64,3.64,0,0,0,5,46.91a5.42,5.42,0,0,0-1,3.3,4.86,4.86,0,0,0,.17,1.22,1.35,1.35,0,0,1,.28,0,1.32,1.32,0,0,1,.5-.07c1.44.11,2.89.11,4.33.22a1.32,1.32,0,0,1,.65.21,23.33,23.33,0,0,1,5.69-2,8.72,8.72,0,0,0,0-1c-.08-1.07-.37-1.69-.91-1.94l-.05,0-.68-.14-.71-.17A12.72,12.72,0,0,1,9.1,44.48C7.56,43.35,6.83,42,7,40.67c.38-2.59,2.91-4.18,5.1-4.36l.13,0a.38.38,0,0,1,.28.4.37.37,0,0,1-.33.33,5.13,5.13,0,0,0-3.56,1.81,3.39,3.39,0,0,0-.85,2.71c.28,1.24,1.41,2.33,3.34,3.23a13.76,13.76,0,0,0,5,1.33,4.76,4.76,0,0,0,2.38-.43c1.48-.68,2.21-1.46,2.26-2.38-1.87-1.55-4.14-4.07-4.56-7.33a6.88,6.88,0,0,1,1-4.72,8.09,8.09,0,0,1,4-3.49,2.9,2.9,0,0,1,1.65,0A3.09,3.09,0,0,1,25.09,30a4.07,4.07,0,0,1-2.74,4.79h-.2a.36.36,0,0,1-.26-.35.37.37,0,0,1,.28-.37,3.3,3.3,0,0,0,2.2-2.49,2.62,2.62,0,0,0-.83-2.65,2.24,2.24,0,0,0-.82-.43c-1.42-.38-2.88.89-3.44,1.45a7.45,7.45,0,0,0-2.37,4.48c-.28,4.58,3.67,7.94,5.39,9.17a17.68,17.68,0,0,0,10.83,3.61,11.23,11.23,0,0,0,6.4-2.61A9,9,0,0,0,42,41.44a6.91,6.91,0,0,0,.59-2,6.2,6.2,0,0,0,.08-.93s0-.1,0-.15a.77.77,0,0,1,.13-.64l.09-.07a.28.28,0,0,1,.12-.38,11.24,11.24,0,0,1,1.72-1,.31.31,0,0,1,.33.11A12.39,12.39,0,0,1,47,30.89c2.17-3.29,6.53-6,10.68-4.93a8.19,8.19,0,0,1,1.05.37,6.25,6.25,0,0,1,3.71,5.09,4.81,4.81,0,0,1-.57,3.17,4.68,4.68,0,0,1-2.77,1.69h-.19a.37.37,0,0,1-.27-.36.39.39,0,0,1,.29-.37c1.59-.41,2.51-1.21,2.73-2.38A5.82,5.82,0,0,0,61,29.35a5.51,5.51,0,0,0-3.46-2.62,6.76,6.76,0,0,0-2.25-.21c-4.73.36-8.79,4.52-9.44,9.7a12,12,0,0,0-.1,1.47A1.55,1.55,0,0,0,46,38c.25.2,0,.51-.23.51a16.33,16.33,0,0,0,5.77,11.4,24.68,24.68,0,0,0,6.79,4.25A16,16,0,0,0,66,55.6,15.84,15.84,0,0,0,73.72,53a17,17,0,0,0,2.36-1.88,7.71,7.71,0,0,0,.77-.9A8.67,8.67,0,0,1,77,48.55a.39.39,0,0,1,0-.28.33.33,0,0,1,.11-.15,4.71,4.71,0,0,1,.2-.66.38.38,0,0,1,.68,0,.36.36,0,0,1,0,.29,5.45,5.45,0,0,0-.2.69,1.94,1.94,0,0,1-.2,2,7.09,7.09,0,0,0,.77,3.06c1,1.8,3.28,2.76,4.93,3.32a21.58,21.58,0,0,0,3.75,1c.2-.17.41-.34.64-.5a.39.39,0,0,1,.59.24.38.38,0,0,1-.15.36l0,0h.21c2.34.14,3.7-.34,4-1.42a.38.38,0,0,1,.68,0,.36.36,0,0,1,0,.29c-.43,1.34-1.92,2-4.32,2a13.42,13.42,0,0,1-1.46-.12,4,4,0,0,0-1.38,2.24,4.14,4.14,0,0,0,.7,2.86,18.18,18.18,0,0,0,5.08,4.73.38.38,0,0,1,.15.37.37.37,0,0,1-.25.29l-.53.15a7.43,7.43,0,0,0-1.76.66c-.09.05-.16.12-.24.17a16.68,16.68,0,0,1,4.13,6.51,5.1,5.1,0,0,0,.55.19,4.93,4.93,0,0,0,4.68-1,2.93,2.93,0,0,0,.73-2.94,5.68,5.68,0,0,0-3.62-3.68,6.79,6.79,0,0,1-1,0,1,1,0,0,1-.27,0,.38.38,0,0,1-.36-.33v-.1a.37.37,0,0,1,.13-.31.35.35,0,0,1,.22-.08.32.32,0,0,1,.25-.1,4.18,4.18,0,0,1,1.14.14,6.62,6.62,0,0,0,3.78-1.65c1.27-1.09,2.52-2.92,2.24-4.79A8.48,8.48,0,0,0,99,57.26a10.6,10.6,0,0,0-4.51-2.74.37.37,0,0,1-.26-.38.36.36,0,0,1,.32-.35,12.78,12.78,0,0,0,6.37-3,11.26,11.26,0,0,0,3.92-6A8.05,8.05,0,0,0,103.45,38.58ZM26.33,12.94a.36.36,0,0,1-.41.17l-.19-.06a2.48,2.48,0,0,0-2.13.44,2.45,2.45,0,0,0-1,1.91.35.35,0,0,1-.14.28.37.37,0,0,1-.32.07,1.9,1.9,0,0,0-.38-.13,1.31,1.31,0,0,0-1.27.26,3.45,3.45,0,0,0-.81,2.78.36.36,0,0,1-.12.33.38.38,0,0,1-.35.08.34.34,0,0,1-.27-.3.66.66,0,0,1,0-.14.51.51,0,0,1-.18,0c-.55-.15-.72-1.15-.77-1.74a4.47,4.47,0,0,1,.54-3.15,5.92,5.92,0,0,1,5.92-2.37,3.66,3.66,0,0,1,1.84,1.15A.35.35,0,0,1,26.33,12.94Zm11.39-6c-1.17.55-2.56,1.36-2.91,2.69a.38.38,0,0,1-.37.27c-.75,0-1,.77-1.37,1.81-.06.2-.11.39-.17.55a.38.38,0,0,1-.45.23h0a1.94,1.94,0,0,1-.5-.3,1.7,1.7,0,0,0-.28-.18.41.41,0,0,1-.19-.25.36.36,0,0,1,0-.3.29.29,0,0,1,0-.09c.16-.41.31-.84.46-1.28.81-2.26,1.65-4.61,3.41-6.34a9.71,9.71,0,0,1,6-2.59A10.9,10.9,0,0,1,45,1.44a8.83,8.83,0,0,1,6.41,5.89.38.38,0,0,1-.09.39.35.35,0,0,1-.36.1.33.33,0,0,1-.2-.15A4.52,4.52,0,0,0,48.06,6a12.39,12.39,0,0,0-1.54-.3,15.79,15.79,0,0,0-4.36-.12A16,16,0,0,0,37.72,6.89ZM55.78,15a1.6,1.6,0,0,1-.93,1.33.34.34,0,0,1-.26,0,.38.38,0,0,1-.07-.7.88.88,0,0,0,.52-.77,4.79,4.79,0,0,0-1.74-3.22,3.51,3.51,0,0,0-3.31,0,3.45,3.45,0,0,0-1.47,1.16,4.14,4.14,0,0,0-.44,1.51c0,.13,0,.25-.07.38a.41.41,0,0,1-.18.26.38.38,0,0,1-.56-.24,3.49,3.49,0,0,0-2.64-2.63A3.68,3.68,0,0,0,43.12,12a3,3,0,0,0-2.24,1.71,2,2,0,0,0,.65,2.66.37.37,0,0,1,.14.46.38.38,0,0,1-.44.21L41.12,17A2.6,2.6,0,0,1,40,14.24a3.73,3.73,0,0,1,2.7-2.9,4.64,4.64,0,0,1,4.84,1.95,2.7,2.7,0,0,1,.51-1,4.59,4.59,0,0,1,1.81-1.34,4.2,4.2,0,0,1,3.93.18C54.54,11.7,55.93,13.59,55.78,15ZM91.09,45.81c-.68.59-1.69,1.35-2.6,1.1a1.06,1.06,0,0,1-.25-.09.39.39,0,0,1-.18-.48.37.37,0,0,1,.5-.2c.49.26,1.31-.17,2.22-1.06a1.89,1.89,0,0,0,.6-2.26,3.93,3.93,0,0,0-2.67-2,4.44,4.44,0,0,0-1.6-.15l-.14,0a.37.37,0,0,1-.28-.37.38.38,0,0,1,.3-.35,3.51,3.51,0,0,0,2.52-2,2.45,2.45,0,0,0-.42-2.66,4.22,4.22,0,0,0-3.36-.94c-1.8.12-2.85.61-3.22,1.5a.37.37,0,1,1-.69-.28c.65-1.57,2.68-1.91,3.84-2,1.87-.1,3.16.29,4,1.18a3.18,3.18,0,0,1,.56,3.44A4.09,4.09,0,0,1,88.63,40l.29.07A4.35,4.35,0,0,1,92.23,43,2.81,2.81,0,0,1,91.09,45.81Z"/><path class="cls-13" d="M43.65,38.47a1.5,1.5,0,0,0,0-3,1.5,1.5,0,0,0,0,3Z"/><path class="cls-14" d="M94.67,81.39c-1.15-2-3.29-1.06-4.72,0a.29.29,0,0,0-.13,0h0l-.14,0,0,0a.18.18,0,0,0-.07.05h0l-.05.09h0a.41.41,0,0,0,0,.11h0A2.1,2.1,0,0,1,86,81.12c-.45-1.31,1-2.79,2-3.35a.32.32,0,0,0,.14-.36C87,74.62,87,70,90.78,69.48a.32.32,0,0,0,.15-.53c-1.21-1-2.62-1.85-3.73-3A5.46,5.46,0,0,1,87,59.1c.15-.2.09-.55-.22-.54-3.72.2-9.16-1.61-9.33-6a.31.31,0,0,0-.35-.3l.13-.14c.22-.26-.07-.7-.38-.49-1.46,1-2.81,2.08-4.36,2.9a.29.29,0,0,0-.06.47c-4.42,2.11-10,2-14.52.27C51.54,52.92,47,47.24,44.92,41a.27.27,0,0,0-.13-.16v-.4a4.51,4.51,0,0,0-.43-2.29A.29.29,0,0,0,44,38c-.28.06-1.1.25-1.14.61A14.3,14.3,0,0,1,41.63,43a9.66,9.66,0,0,1-6.32,4.88c-4.64,1.24-9.85-.55-13.77-3a.32.32,0,0,0-.47.27c-.07,1.7-3.79,2.53-5.11,2.47a.31.31,0,0,0-.22.53c1.71,1.83.16,6.38-1.58,7.74a.32.32,0,0,0,0,.45c.05.07.12.12.18.19a.3.3,0,0,0,0,.51,8.72,8.72,0,0,1,1.38.87c-.71,1.69-1.5,3.28-2.07,5.05-.51,1.56-1.46.5-2.22-.09A5.41,5.41,0,0,0,9.84,62a.3.3,0,0,0-.39.3,15.92,15.92,0,0,0,.94,3.52,21.49,21.49,0,0,1,.91,5.11,16.09,16.09,0,0,0,2.86,7.16c.54.82,1.11,1.65,1.67,2.48-.05,1.82,1.72,3.31,2.85,4.59a58.05,58.05,0,0,0,6,5.88,33,33,0,0,0,6.68,4.46,20.25,20.25,0,0,0,5.2,2.15A6.58,6.58,0,0,0,41,106.45a.3.3,0,0,0,.29-.09c2.54,2.49,5.91,3.58,9.58,4a11,11,0,0,0,6.81-1.06,13.29,13.29,0,0,0,4.12-4.22,7.39,7.39,0,0,0,1.6-2.72c.72-1.49,1.66-1.8,3.18-2.22a46.52,46.52,0,0,0,10-3.93,36.82,36.82,0,0,0,8.31-6.61,20.51,20.51,0,0,0,3-3.94c1-1.62,1.77-3.16,3.5-4a97.52,97.52,0,0,1-2,11c-.87,3.14-2.55,7.86-6,9-4,1.29-10.25-2.46-13.21,1.68-.95,1.34-1.52,4.12-.29,5.48s3.16,1.22,4.74,1a34.64,34.64,0,0,0,6.92-1.91,27.87,27.87,0,0,0,6.8-3.09c5.25-3.73,7.22-10.57,7.46-16.72C95.82,85.91,95.81,83.32,94.67,81.39Z"/><path class="cls-14" d="M38.15,125.87a119.8,119.8,0,0,0-.61-13,.33.33,0,0,0-.32-.31c-1.13,0-2.25.06-3.38,0a.74.74,0,0,0-.58-.51c-.25,0-.34.22-.27.41h0c-.39-.07-.56.54-.17.6l.62.07c.15,1.32,0,5.16,0,5.75-.12,3.84.17,7.71.21,11.56,0,4.85-.05,9.71.08,14.56,0,1.84.07,3.68.15,5.52a7.47,7.47,0,0,0,1,4,.31.31,0,0,0,.43.11c1.62-1.09,1.91-3.6,2.13-5.37.41-3.4.65-6.84.78-10.26C38.35,134.61,38.22,130.24,38.15,125.87Z"/><path class="cls-14" d="M45.26,204a14.62,14.62,0,0,1-1.51-5.86c0-2.54.45-5,.26-7.59,0-.22-.27-.43-.47-.27H42a.26.26,0,0,0-.18-.06c-.2-.29-.69,0-.51.35,2,3.72,1.33,8.28.83,12.28a11.18,11.18,0,0,0,.59,5.87c.29.7,1.06,2.18,2.06,2C47.46,210.33,45.78,205.29,45.26,204Z"/><path class="cls-14" d="M59.77,197.15c0-2.6-.08-5.21-.18-7.81a.33.33,0,0,0-.4-.31,6.18,6.18,0,0,1-2.42.26l-.13,0h0c-.18-.36-.72,0-.54.32a1.78,1.78,0,0,0,.23.33c.21,2.16-.25,4.28-.22,6.44a11.16,11.16,0,0,0,.47,2.75,5.52,5.52,0,0,1-.35,4.77c-.55,1-4.38,5.71-1.21,6.18,1.1.16,2.15-.74,2.86-1.45a7.75,7.75,0,0,0,1.81-4.71C59.93,201.72,59.75,199.39,59.77,197.15Z"/><path class="cls-15" d="M89.87,69.18a.63.63,0,0,0,.13-1c-2.35-2.53-5.37-4.66-4-8.56a.63.63,0,0,0-.28-.71,19.33,19.33,0,0,0-4.44-1.83c-2.76-.87-4-2.41-4.23-4.85a6.23,6.23,0,0,0,.52-1c.29-.69-.64-1.28-1-.73a.61.61,0,0,0-.79.58q0,.41,0,.78c-3.31,4.55-12.3,4.48-17,3.33C51.51,53.46,45.3,46,44.48,38.72c0-.48-.67-.91-1.07-.44-1.65,2-1.78,7.33-5,7.21a.6.6,0,0,0-.57.83C35,48,31.76,48.2,28.57,48.23a.55.55,0,0,0-.49.27,10.69,10.69,0,0,1-4.36-2C22.82,45.75,22,45,21,44.29a.63.63,0,0,0-.94.54c0,2-2,2.4-3.56,2.62a.48.48,0,0,0-.37.22.66.66,0,0,0-.39.71c.5,3.08-.85,5.78-2.35,8.36a.63.63,0,0,0,.54.94l1.19,0a.54.54,0,0,0,0,.22,10.45,10.45,0,0,1-1.42,4.44,3,3,0,0,1-1.45.13l-.09-.24a.65.65,0,0,0-1-.27,2.63,2.63,0,0,1-.47-.52c-.44-.67-1.52,0-1.08.63a.86.86,0,0,0,.07.1.54.54,0,0,0-.13.56c1.44,5.19,2.16,10.21,4.4,15.19,1.9,4.19,4.21,7.85,7.81,10.49a.57.57,0,0,0,0,.22c.82,3.25,5.26,5,8.33,4.46.58-.11.55-.86.15-1.14C24.85,88.21,20,83.09,18,76.83a.53.53,0,0,0,0-.47c-.18-.59-.39-1.19-.62-1.78l0-.2a.8.8,0,0,0,0-.27c-.09-.64-.19-1.27-.28-1.91a1.1,1.1,0,0,1,0-.18,23.36,23.36,0,0,1,0-3.24c0-.14,0-.29.05-.43s0-.27,0-.4a15.12,15.12,0,0,0,.63-3.39,34,34,0,0,1,3-7.7c4.1,0,7.85.19,11.86,1.93,4.57,2,10,6,7.9,11.62-.28.76.93,1.08,1.21.33l0-.11a.74.74,0,0,0,.13-.21c1.58-4.42,3-9.8.31-14.09-1.75-2.79-5.56-3.66-8.66-4.54a.67.67,0,0,0-.62-.67,21.41,21.41,0,0,1-5.27-.73l2.22.15a.55.55,0,0,0,.47.23,11,11,0,0,0,1.5-.12c4.32.16,8.48-.29,10.69-4.06,1.72,6.55,5.92,11.93,12.71,13.73a32.23,32.23,0,0,0,11.83.39,13.41,13.41,0,0,0,8-3.61,9.91,9.91,0,0,0,6.29,8.35c-1.43,2.36.22,6.55,1.23,8.67a19.08,19.08,0,0,0,1.66,2.78c.39.54-1,2.14-1.23,2.68-.89,1.93.19,3.63.82,5.43,1.33,3.84-5.09,6.34-7.69,6.34a14.21,14.21,0,0,1-8.83-3.24c-2.24-1.9-3.64-4.92-5.13-7.4a15.77,15.77,0,0,1-1.94-3.95c-.44-1.64-.27-3.53-.49-5.22,0,0,0-.05,0-.08s0,0,0-.08c-.32-2-1.46-4.12-.39-6.12a.63.63,0,0,0-1.08-.63,20.71,20.71,0,0,0,4.85,25.91c3.05,2.47,6.66,3,10.37,3.62-3.45,3.17-9.75,3.28-14.08,3.75a51,51,0,0,1-22.8-2.52c-.54-.19-.94.48-.7.92,3,5.47,7,10.7,13.66,11.43,5.91.65,11.43-1.82,14.23-6.95h.17c2.56-.37,5.28-1.74,7.72-2.62a45.73,45.73,0,0,0,6.93-3.09c4.66-2.61,7.55-7.48,10.18-11.95a.64.64,0,0,0-.71-.92c-3.16.62-.61-4.45-.36-5.67a3.74,3.74,0,0,0-.3-2C86.79,72.08,88,70.49,89.87,69.18Z"/><path class="cls-15" d="M91.75,87a41.68,41.68,0,0,0-2,4.22.59.59,0,0,0-.64.43,50.79,50.79,0,0,1-1.89,5.75,8.8,8.8,0,0,0-.9,1.59,6.88,6.88,0,0,1-2.19,2.1c-1.77,1.06-4.82.87-6.84,1a24.39,24.39,0,0,1-6.72-.27.64.64,0,0,0-.79.6c0,.85,0,1.69-.07,2.53a13,13,0,0,0-.25,3.43c0,.68,1.07.88,1.23.16l0-.15c5.37-1.82,11.74-2.77,16.12-6.57A12.51,12.51,0,0,0,90,96.75a58.43,58.43,0,0,0,2.87-9.27A.62.62,0,0,0,91.75,87ZM77.38,105.22a.42.42,0,0,0,.1-.32l.09,0a7.56,7.56,0,0,0,.83,0Q77.89,105.09,77.38,105.22Z"/><path class="cls-15" d="M36.9,112.57a.7.7,0,0,0-.93-.38.67.67,0,0,0-.94.54c-.45,4.88.18,9.69.15,14.56s-.42,9.66-.66,14.48c-.05,1-1.09,8.35.34,10.14l.09.24a.62.62,0,0,0,1,.1c1.33-.41,1.44-3.07,1.59-4.1A61.1,61.1,0,0,0,38,137.59c-.11-4.58,0-9.07.33-13.64A25.58,25.58,0,0,0,36.9,112.57Z"/><path class="cls-15" d="M44,203a23.79,23.79,0,0,1-.58-6.44c.06-1.73.76-4-.07-5.58l0,0a0,0,0,0,0,0,0l-.05-.06s0-.06-.07-.08a.55.55,0,0,0-.58-.12.58.58,0,0,0-.43.4v0a.76.76,0,0,0,0,.16v.16a.57.57,0,0,0,.2.46,9.67,9.67,0,0,1-.08,3.48,30.13,30.13,0,0,0,0,4.75,19.58,19.58,0,0,0,.38,2.78s0,.08,0,.12c.27,1.08.51,2.15.81,3.22a3.56,3.56,0,0,0,.7,1.21c.37,1,.67,1.86.7,1.86-.79.08-.8,1.33,0,1.25.62-.06,1.46-.14,1.46-1C46.28,207.54,44.74,205,44,203Z"/><path class="cls-15" d="M58.64,191.09a.62.62,0,0,0-.9-.54,2.2,2.2,0,0,0-.15-.26.63.63,0,0,0-1.14.15,24.37,24.37,0,0,0-.33,6.88c.1,2.56-.13,5.15-.17,7.72a.69.69,0,0,0-.24.21c-.61,1-1.93,2.64-1.68,3.9s1.85,1.07,2.66.4c1.6-1.32,1.75-3.73,1.9-5.67C58.93,199.64,58.66,195.34,58.64,191.09Zm-1.29,4.77c0-.84-.05-1.68,0-2.52A13.24,13.24,0,0,1,57.35,195.86ZM55.9,208.5a5.23,5.23,0,0,0,.77-1.65c.09-.2.18-.41.26-.62a.67.67,0,0,0,.21-.23A3.87,3.87,0,0,1,55.9,208.5Z"/><path class="cls-16" d="M90.07,68.92a31,31,0,0,1-3.41-3,11.15,11.15,0,0,1-2.17-4.25,1.88,1.88,0,0,1,.73-1.34l.08-.06a1.64,1.64,0,0,1,.4-.19A.65.65,0,0,0,85.87,59a.68.68,0,0,0-.21-.17.56.56,0,0,0-.57-.74,9.15,9.15,0,0,1-5.13-1,6.65,6.65,0,0,1-1.82-1.77c-.52-.81-1-1.67-1.42-2.53a.58.58,0,0,0-.69-.52.66.66,0,0,0-.31.16c-2.89,1.9-5.84,3.68-9.34,4.09S59.16,55.75,56,54.29a22,22,0,0,1-6.15-4.14,39.68,39.68,0,0,1-4.68-8.7l-.06-.39A4.58,4.58,0,0,0,45,39.55a.57.57,0,0,0-.44-.43.69.69,0,0,0-1,0,.5.5,0,0,0-.57.44,19.53,19.53,0,0,0-.72,3.39c-.93,1.3-2.4,2.25-3.43,3.45h0a2.74,2.74,0,0,0-.92.58c-3,1.69-7.51,1.81-11,.78a.66.66,0,0,0-.38-.9,30.79,30.79,0,0,1-3.09-1.12c-.56-.22-1.48-1.06-2.15-1.06-1.69,0-3.59,2.4-5.15,3a.63.63,0,0,0-.28,1c.74.78.41,2.18,0,3.41a5,5,0,0,0-.45,1.41l0,.09h0l0,.16a.49.49,0,0,0,0,.25.47.47,0,0,0-.24.26,4.69,4.69,0,0,1-.8,1.43c-.4.51.14,1.44.76,1l.12-.1h0l0,0h0a.59.59,0,0,0,.6,0,.64.64,0,0,0,.79-.4c.35-1,.7-1.92,1-2.91a.29.29,0,0,0,0-.13c1.19-1.41,2.2-3,3.39-4.45a.56.56,0,0,0,.54.35,39.25,39.25,0,0,1,6.19.63c.21.09.43.17.65.24A10.28,10.28,0,0,0,32.2,50c.4,0,.8,0,1.19-.07a.57.57,0,0,0,.53.33c2.86,0,5-1.75,7.14-3.46a8.69,8.69,0,0,0,.83-.77.63.63,0,0,0,.69-.25c.47-.67,1-1.31,1.38-2,.9,5.06,6.1,10.22,10.27,12.09l.18,0a21.05,21.05,0,0,0,3,1.55c5.4,2.21,13.14,1.17,17.72-2.7.54,2.15,2.76,3.72,4.51,4.88A7.39,7.39,0,0,0,83,61,12.41,12.41,0,0,0,83.51,64a10.74,10.74,0,0,0,3.12,4.76c-2.77,1.16-2.9,6.28-1.18,8.87-.11.17-.21.33-.3.49C83.32,80.21,83.53,84,86.21,85c-.95,1-1.83,2.16-2.74,3.16-1.3,1.44-2.73,2.71-4.13,4.05-.37.12-.75.24-1.13.38a.93.93,0,0,0-.1,0c-3.93.61-7.8-1.18-11.31-3.1-.77-.51-1.52-1-2.27-1.57a.89.89,0,0,0-.08-.17,14.25,14.25,0,0,0-2.76-3.14,10.11,10.11,0,0,1-1.38-1.4.52.52,0,0,0,0-.63c-2.71-4-2.72-9.75-2.17-14.53a10.43,10.43,0,0,1,.92-2.19A.63.63,0,0,0,58,65.25c-.09.16-.18.32-.26.49a.49.49,0,0,0-.58.44c-.08.52-.15,1.06-.21,1.61a24.11,24.11,0,0,0-.25,9.12,17.11,17.11,0,0,0,1.66,5.72,8,8,0,0,0,1.22,1.75.36.36,0,0,0,0,.1c0,.16,0,.31,0,.47a.59.59,0,0,0,0,.55,1.67,1.67,0,0,0,.12.23A3.91,3.91,0,0,0,62.41,89a.68.68,0,0,0,.43-.06,36.49,36.49,0,0,0,3.57,2.57.58.58,0,0,0,.81-.19c.81.48,1.62.93,2.55,1.37a.63.63,0,0,0,.64-.07,14.37,14.37,0,0,0,9,1h.14l.24-.08a.53.53,0,0,0,.51-.06l.38-.25.28-.11h0l.15-.06a.48.48,0,0,0,.31-.39,21.82,21.82,0,0,0,1.69-1.5c.56-.44,1.13-.87,1.67-1.35a10.86,10.86,0,0,0,3.58-4.59.57.57,0,0,0-.14-.57.5.5,0,0,0,0-.43A1.19,1.19,0,0,0,88.5,84a.59.59,0,0,0,.14-.22.63.63,0,0,0-.52-1.12,2.75,2.75,0,0,1-1.61-.27,4.07,4.07,0,0,1-.6-2.46c.16-.4.34-.79.51-1.18a.64.64,0,0,0,.91-.39.65.65,0,0,0,.66-1c-1.35-1.51-1.88-4.89-.65-6.68a3.92,3.92,0,0,1,.27-.33.68.68,0,0,0,.16-.36l.37.36a.6.6,0,0,0,1-.46h0C89.8,70.32,90.69,69.44,90.07,68.92Z"/><path class="cls-16" d="M76.1,94.58c-2.95,2.21-7.56,3.65-11.12,4.63a34.82,34.82,0,0,1-10.86,1,33.44,33.44,0,0,0-6.9-.89C44.75,98.7,42.3,98,40,97.41a.64.64,0,0,0-.71.92c.66,1.55,2.46,2.3,4.15,2.78A9.2,9.2,0,0,0,47,103a10,10,0,0,0,3.16,1.28,11.81,11.81,0,0,0,6.8-1.16,6.65,6.65,0,0,0,1.67-.87l.07-.07a5.62,5.62,0,0,0,.56-.25.56.56,0,0,0,.28-.64c1.26-.11,2.52-.26,3.75-.47a39.81,39.81,0,0,0,7.13-2.23,23.44,23.44,0,0,0,6.35-2.91C77.37,95.18,76.75,94.09,76.1,94.58Z"/><path class="cls-16" d="M90.6,89c-1.52,1.39-1.8,3.63-2.3,5.52-.85,3.16-2.28,5.76-4.92,7.14a.65.65,0,0,0-.4.06c-2.72,1.34-6.73.2-9.61-.09a4.16,4.16,0,0,0-1.86.13c-.19-.51-1-.63-1.17,0-.07.35-.11.7-.15,1h0A.63.63,0,0,0,70,104a5.73,5.73,0,0,1-.16.69.64.64,0,0,0,.77.77c3.71-.6,8.9-.16,12.31-2.21a8.94,8.94,0,0,0,4.64-3.7,18.43,18.43,0,0,0,1.91-4.69c.53-1.67.62-3.71,2-5C92.07,89.3,91.19,88.42,90.6,89ZM76.76,103.65a.6.6,0,0,0,.07-.52c.74.11,1.37.22,1.77.27C78,103.51,77.38,103.59,76.76,103.65Z"/><path class="cls-16" d="M37.76,114c0-.27,0-.55,0-.82h0v-.12a.63.63,0,0,0-1.25,0c0,.51,0,1,0,1.53q-.09,2.49-.12,5c-.13,3.79-.3,7.58-.22,11.37a100,100,0,0,1-.25,11.35c-.35,3.66-1.07,7.35-1.06,11a.64.64,0,0,0,.94.55c1.2-.57,1.46-3.25,1.51-5.59A54.93,54.93,0,0,0,38,135.65a.58.58,0,0,0,.47-.58C38.5,128.15,39.25,120.81,37.76,114Z"/><path class="cls-16" d="M46.53,207.66C42.36,203.69,44,196.09,44,191a.63.63,0,0,0-1.25,0c0,5.4-1.56,13.27,2.91,17.52C46.23,209.1,47.12,208.21,46.53,207.66Z"/><path class="cls-16" d="M57.33,190.05c-.12-.79-1.33-.45-1.21.34A38.65,38.65,0,0,1,56,199c-.12,1.55-.18,3.11-.3,4.66a17.11,17.11,0,0,0-.35,2.52.57.57,0,0,0-.23.16l-.74.63a.53.53,0,0,0-.25.73,1.35,1.35,0,0,0,0,.84.65.65,0,0,0,.61.46c2.17.09,2-3.93,2.18-5.34C57.44,199.23,58,194.47,57.33,190.05Z"/><path class="cls-17" d="M31.83,87.88c-.33-3.73-4.66-6.38-7.39-8.47a3.11,3.11,0,0,0-4.4,4,3.76,3.76,0,0,0,.33,2,15,15,0,0,0,6.54,6.75,3.19,3.19,0,0,0,1.62.42C31,93.09,33,90,31.83,87.88Z"/><path class="cls-17" d="M73.72,92.87C73.55,88.68,69.44,88,65,88.66c-2.16,0-4.81.4-6.22,1.66a20,20,0,0,0-3.75,1.81A3.15,3.15,0,0,0,56.63,98l.66,0c1.66,1.65,5.51,1.42,7.76,1a20.09,20.09,0,0,0,5.38-1.5,3.19,3.19,0,0,0,.58-.3A4.69,4.69,0,0,0,73.72,92.87Z"/><path class="cls-18" d="M51.33,116.68c.68-1.56.82-5.57-1.64-5.73-1.76-.12-3.34,1.44-4.15,2.86a2.83,2.83,0,0,0-.46,2,1.31,1.31,0,0,0,1.13.89,2.36,2.36,0,0,0,2,1.93A3,3,0,0,0,51.33,116.68Zm-3.69-.13v1a1.72,1.72,0,0,1-.42-.93c.23-.15.35-.36,0-.39a.86.86,0,0,1,0-.17c.23-.89,1.29-.65,1.59,0a.86.86,0,0,1-.23,1.06v-.66C48.61,116,47.64,116.23,47.64,116.55Zm.55,1.34c1.07-.32,2.2-1.21,1.46-2.4-.63-1-2.42-.58-3.07.17a1.6,1.6,0,0,0-.21.32c-.6-.48-.26-1.6.18-2.34s1.83-2.51,3-2.08c.71.27,1,1.16,1.12,1.82a5.18,5.18,0,0,1-.51,3.84,1.48,1.48,0,0,1-2,.69Z"/><path class="cls-18" d="M70.35,86.7a.48.48,0,0,0,.11-1A.48.48,0,0,0,70.35,86.7Z"/><path class="cls-18" d="M89,40.8l-.3-.07a4.18,4.18,0,0,0,1.58-1.85,3.18,3.18,0,0,0-.57-3.44c-.82-.89-2.11-1.28-4-1.18-1.15.06-3.18.39-3.83,2a.32.32,0,0,0,0,.3.4.4,0,0,0,.69,0C83,35.62,84,35.12,85.83,35a4.21,4.21,0,0,1,3.36.94,2.45,2.45,0,0,1,.42,2.66,3.47,3.47,0,0,1-2.52,2,.36.36,0,0,0-.29.36.36.36,0,0,0,.27.36l.14,0a4.65,4.65,0,0,1,1.6.15,4,4,0,0,1,2.68,2,1.88,1.88,0,0,1-.61,2.26c-.9.89-1.73,1.32-2.21,1.06a.37.37,0,0,0-.5.2.39.39,0,0,0,.18.48l.24.1c.91.24,1.93-.52,2.61-1.11a2.82,2.82,0,0,0,1.13-2.81A4.32,4.32,0,0,0,89,40.8Z"/><path class="cls-18" d="M53.86,11.82a4.2,4.2,0,0,0-3.94-.19A4.73,4.73,0,0,0,48.11,13a2.68,2.68,0,0,0-.5,1,4.65,4.65,0,0,0-4.85-1.95,3.74,3.74,0,0,0-2.7,2.9,2.61,2.61,0,0,0,1.16,2.76.27.27,0,0,0,.11.05.39.39,0,0,0,.45-.21.38.38,0,0,0-.14-.46A2,2,0,0,1,41,14.45a3,3,0,0,1,2.25-1.71,3.7,3.7,0,0,1,1.51.08,3.49,3.49,0,0,1,2.63,2.63.38.38,0,0,0,.56.24.35.35,0,0,0,.18-.26c0-.12,0-.25.07-.38a4.15,4.15,0,0,1,.45-1.51,3.49,3.49,0,0,1,1.46-1.16,3.55,3.55,0,0,1,3.32,0,4.82,4.82,0,0,1,1.73,3.22.87.87,0,0,1-.51.77.37.37,0,0,0,.07.7.34.34,0,0,0,.26,0,1.63,1.63,0,0,0,.93-1.34C56,14.32,54.64,12.43,53.86,11.82Z"/><path class="cls-18" d="M105.26,46.91a8.38,8.38,0,0,0-.15-6.3,13.65,13.65,0,0,0-4-5.08A13.5,13.5,0,0,0,96.17,33a8.53,8.53,0,0,0-3.45-.24,27.35,27.35,0,0,0-1-8,27.89,27.89,0,0,0-3.54-7.42c-2.58-3.81-6.41-7-11.71-9.84A37.29,37.29,0,0,0,69.7,4.55a20.12,20.12,0,0,0-3.54-.68,23.5,23.5,0,0,0-3.25,0l-.33,0c-4.47.21-7.17,1.51-8,3.88A15.31,15.31,0,0,0,49.36,3,20.33,20.33,0,0,0,42.59.28a13.89,13.89,0,0,0-6.73.29,12.64,12.64,0,0,0-5.78,4,20.79,20.79,0,0,0-2.44,3.55,11,11,0,0,0-1.26,3.37,2.53,2.53,0,0,0-1.24-.76c-2.35-.63-5.78,1.58-6.78,2.27a10.76,10.76,0,0,0-4.22,10.45,8.31,8.31,0,0,0-1.37-.5A10.3,10.3,0,0,0,1.34,28,12.57,12.57,0,0,0,.08,35.33,19.15,19.15,0,0,0,.9,39.21a12.59,12.59,0,0,0,1.74,3.71,7,7,0,0,0,3.83,2.69l.26,0,0,0a4.32,4.32,0,0,0-1.76,1.08,5.31,5.31,0,0,0-1.47,3.7,7.16,7.16,0,0,0,.25,2.23h0c-1.38,2.68-1.36,5.29-2,8.15A1.12,1.12,0,0,0,1.58,62a1.41,1.41,0,0,0,1.67,1.09,26,26,0,0,0,.42,5.46c1,5.14,5.89,8.56,10.61,10.74a37.46,37.46,0,0,0,4.34,6.23,43.73,43.73,0,0,0,4.18,4c.48.44,1,.87,1.5,1.29h0a4.74,4.74,0,0,0-.66-.41.1.1,0,0,1,0,.07,6.7,6.7,0,0,1,1.08.67h0c.87.69,1.77,1.36,2.7,2,1.65,1.15,3.51,1.85,5.26,2.84.45.25.9.49,1.37.72.88.42,1.83.82,2.81,1.18a6,6,0,0,0-1.21.78A5.63,5.63,0,0,0,34,101.78c-1,3.59-1,7.49-1.09,11.18-.12,5.87.3,11.71.4,17.57.12,7.25-.61,14.8.69,22,.24,1.34,1,3,2.53,1.81A4.8,4.8,0,0,0,38,151.69c-.2,4.07-.2,8.11-.16,12.21.06,5.21-.22,10.37.87,15.5.65,3,1,6.28,1.93,9.26a35.29,35.29,0,0,1,1.1,9.61c0,2.36-.11,4.74,0,7.1.12,1.91.25,5.66,2.75,6a3.46,3.46,0,0,0,2.53-1.23c1.1-1-.24-3.18-.75-4.15-2.68-5.15-1.43-10.37-1.8-15.83,1-1.07,1.18-3.3,1.31-4.55.51-5,1.7-10.47,4.64-14.52a13.23,13.23,0,0,1,3.22,9.46c-.15,2.81-.46,5.62,1.43,7.94a6,6,0,0,0,1,1c-.5,5.1,1,10.42-.41,15.42-.49,1.73-2.45,1.94-2.48,3.91,0,1,1,1.53,1.9,1.47,2.78-.19,4.37-1.93,4.83-4.67.92-5.39.14-11.19,0-16.67a5.6,5.6,0,0,0,.91-2,35.18,35.18,0,0,0,.62-6.23c.21-3.43,1.5-6.79,2.2-10.16a34.36,34.36,0,0,0,.68-11.87c-.28-2-.62-4.11-.93-6.21a82.06,82.06,0,0,1-1.13-12.77c.06-4.57.23-9.1.52-13.66.31-4.81.24-9.63.61-14.43h0v-.16a50.13,50.13,0,0,0,13.79-1.81A65.54,65.54,0,0,0,89,105.17c3.48-1.8,4.84-5.19,5.88-8.77A29.37,29.37,0,0,0,96,83.85c.48-1.68,1.09-3.16.21-4.89a1.1,1.1,0,0,0-.73-.58,5.2,5.2,0,0,0,3.7-1.53,3.65,3.65,0,0,0,.87-3.43,6.32,6.32,0,0,0-3-3.85,7.31,7.31,0,0,0,5.53-6.67c0-1.58-.89-3.31-2.63-5.12A12.56,12.56,0,0,0,96.05,55,13.83,13.83,0,0,0,105.26,46.91ZM6,61.33c.08-.22.16-.43.23-.65l.24-.86c0-.12.07-.24.1-.36a1,1,0,0,0,.34-.37s0,0,0,0a11.31,11.31,0,0,0,2.87,2.68,5.94,5.94,0,0,0,.1,2.32c.14.87.33,1.71.52,2.56.57,2.62,1.09,5.26,1.86,7.81q.19.61.42,1.23C6.39,72.24,5.78,66.9,6,61.33Zm6.49-3.88.17.06a1.32,1.32,0,0,0,1.12-.26.37.37,0,0,0,.59.13c.18-.19.29-.16.33-.15a1.08,1.08,0,0,1,.5.53c-.09.16-.18.33-.26.51a8.61,8.61,0,0,0-.73.89,2.06,2.06,0,0,0-.39,2.14,3.89,3.89,0,0,0-.13,1.1,5.1,5.1,0,0,1-1.08-.17L12,62.05A9.9,9.9,0,0,1,8.5,59.82a5.14,5.14,0,0,1-1.22-1.48c1.82-3,4.7-4.49,8-5.2a10.21,10.21,0,0,1-1.18,2.66c-.49.74-.93,1.08-1.29,1l-.12,0a.36.36,0,0,0-.44.24A.37.37,0,0,0,12.44,57.45Zm1.61,18.93A30.78,30.78,0,0,1,13,73.45c-.58-1.92-1-3.9-1.42-5.87-.22-1-.44-2.11-.68-3.15-.1-.39-.23-1.54-.47-2.23l.05,0a7.35,7.35,0,0,0,1.74.72,5.38,5.38,0,0,0,1.69.19c.58.51,1.92,0,2.39-.56a4.28,4.28,0,0,0,.63-1,2.38,2.38,0,0,0,.63-.45c1-1.08,2.33-4.63.25-4.91h-.09a1.54,1.54,0,0,0-.93.07,2.47,2.47,0,0,0-1.18.81,1.68,1.68,0,0,0-.81-.62,1.23,1.23,0,0,0-.28,0,10.24,10.24,0,0,0,1.53-3.34s0-.1.05-.16a49.76,49.76,0,0,1,11.76-.09A34.72,34.72,0,0,1,39,55.42c7.25,3.1,5.45,10.11,2.3,15.16C35.35,80.09,24.11,81.22,14.05,76.38Zm2.51-18.9a3.07,3.07,0,0,1,.7-.73,1.18,1.18,0,0,1,.13.33,4.79,4.79,0,0,1,.06.93l0-.09A.91.91,0,0,0,16.56,57.48Zm13.05,36.1-.06,0A43.12,43.12,0,0,1,19,84.61a31,31,0,0,1-3.26-4.7,23,23,0,0,0,16.6.69.43.43,0,0,0,.44.34.46.46,0,0,0,.42-.67A22,22,0,0,0,39,76.82a.45.45,0,0,0,.45.4.48.48,0,0,0,.17-.93,26.7,26.7,0,0,0,5-5.92,15.28,15.28,0,0,0,2-4.76c2.43-.15,5.8,0,7.44,2,0,.06,0,.11,0,.17a1.16,1.16,0,0,0,.62,1c-2,9.63,2.48,20.86,12.91,24.86a29.75,29.75,0,0,0,9.56,2c-.56.33-1.13.65-1.69,1A37.19,37.19,0,0,1,64,100.37c-.51.09-1,.17-1.54.24a49.85,49.85,0,0,1-17.11-.94C40,98.49,34.12,96.86,29.61,93.58ZM57.5,67.67c.81-2.64,3.33-4.12,6.1-4.42a45.7,45.7,0,0,1,12.75,2.22,25.31,25.31,0,0,1,11,7,7,7,0,0,0,.81,4.43c.07.17.14.33.2.5a3.08,3.08,0,0,0-2.22,2.38,2.52,2.52,0,0,0,1.46,2.85,2.24,2.24,0,0,0,.34.11,2.77,2.77,0,0,0,1.82-.16,32.4,32.4,0,0,1-4.62,6.81A27.54,27.54,0,0,1,81,93.05a27,27,0,0,1-14-2.41c-8.67-4-11.6-14.45-9.47-22.42A1.14,1.14,0,0,0,57.5,67.67Zm33,17.62c-1.1,4.36-4.22,6.63-8,7.5a27.9,27.9,0,0,0,4.89-5.28,25.83,25.83,0,0,0,3.54-5.75l.06-.05A14.13,14.13,0,0,1,90.51,85.29Zm-.14-4.14c0,.07-.05.13-.08.19a2.63,2.63,0,0,1-2.32.59,1.74,1.74,0,0,1-1.14-2,2.4,2.4,0,0,1,2.06-2,.36.36,0,0,0,.27-.18.42.42,0,0,0,0-.33c-.12-.31-.25-.62-.38-.92A7.59,7.59,0,0,1,88,73.21a14,14,0,0,1,3,7.11C90.67,80.67,90.44,81,90.37,81.15Zm-49.71,18c1.61.48,3.22.9,4.86,1.24,1.29.27,2.67.14,3.94.49l.16,0a17.37,17.37,0,0,0,3.31.47,48.45,48.45,0,0,0,7.52-.09,44.12,44.12,0,0,0,14.63-4c1.07-.5,2.13-1.06,3.16-1.66a16.49,16.49,0,0,0,10.85-3.77c-.66,1.76-1,3.51-1.55,5.33-1.4,5.06-7.39,5-11.69,4.36a75.72,75.72,0,0,0-8.35-1c-1.44,0-4.38,0-4.42,2a.37.37,0,0,0-.21.22c-1.47,6.38-7.47,7.53-13.06,6.8a4.53,4.53,0,0,0-.81-.12l-1.31-.25a16.33,16.33,0,0,1-5.4-2.46c-1.7-1.14-3.71-2.7-4.5-4.65a5.06,5.06,0,0,1-.39-2.63c.05-.33.52-.85.57-1.25C38.88,98.55,39.79,98.85,40.66,99.11Zm6.91,19.47a4.72,4.72,0,0,1-2.52-.82,4.27,4.27,0,0,1-.18-.54c0-.11-.24-.11-.45-.06a3.8,3.8,0,0,1-.5-3.63,6,6,0,0,1,2.17-3,3.3,3.3,0,0,1,1.7-.65l1,.2.93.13a6.88,6.88,0,0,1,1.16.63c2.79,1.89,3.73,5.38,1.07,7.76-1.83,1.62-4.75,1.9-6.26.22A7.52,7.52,0,0,0,47,119C47.16,119,48.07,118.61,47.57,118.58ZM37.8,145.37a49.09,49.09,0,0,1-.72,5.54c-.11.52-1.1,4.18-1.77,2.58-1.28-3.05-.9-7.2-1-10.41-.12-5.8,0-11.59-.23-17.38-.17-4.3-.4-8.71-.31-13.1a3.4,3.4,0,0,0,1.59.08c.66-.09,2.13-.78,2.5,0a5.3,5.3,0,0,1,.2,2.21,2.19,2.19,0,0,0,0,.88C37.81,125.65,38.53,135.53,37.8,145.37Zm7.12,59.95c.43,1,1.52,2.18,1.56,3.32s-1.62,2.94-2.61,1.34c-1.33-1.75-1.13-4.88-1.13-6.95v-6.78c0-1.9-.57-3.7-.58-5.59a2.25,2.25,0,0,0,1.39,0c.16,3.14-.34,6.29,0,9.45A18.07,18.07,0,0,0,44.92,205.32Zm14,1.11a5.21,5.21,0,0,1-1.3,2.53q-2.37,1.83-3.29,0a2.34,2.34,0,0,1,0-1.41c.21-1,1.82-1.44,2.2-2.41a11.34,11.34,0,0,0,.68-3.55c.23-3.89-.43-7.77-.16-11.65a2.31,2.31,0,0,0,1.83-.07,40.24,40.24,0,0,0,.25,4.11c.06,2.28.13,4.56.16,6.83A31.17,31.17,0,0,1,58.89,206.43Zm4.63-95.74v-.06c-.11-.25-.92-.07-1,.21-.5,5.7-.36,11.43-.8,17.13-.34,4.5-.4,9-.4,13.52a91.36,91.36,0,0,0,1.48,14.29,37.32,37.32,0,0,1,.52,11c-.62,5.46-2.61,10.58-2.95,16.07-.1,1.61-.27,8.07-3.42,6a5.52,5.52,0,0,1-2.37-4c-.42-2.49.27-5.07,0-7.58s-1.95-5.13-3.57-7c-.2-.23,2.71-2.57,3-2.75,1.14-.8,3.51-.65,4-2.1a1.55,1.55,0,0,0-.64,0c-6.41,2.11-9.92,7.68-11.63,14-.74,2.72-.61,5.48-1.13,8.23-.2,1.08-1.34,3.55-2.46,1.87A10.52,10.52,0,0,1,41,185.84c-.59-3.13-1.33-6.27-1.8-9.41-.73-4.83-.31-9.79-.41-14.65-.1-4.67.07-9.27.4-13.93.35-5.1.45-10.19.74-15.28a8.73,8.73,0,0,0,1.84.47c.38.05,3.16.27,3.3-.06-.44,1,0,2.4.13,3.56-.74,0-1.49-.09-2.24-.12s-1.85-.25-2.4.23.28.74.65.43a21.6,21.6,0,0,1,2.94.11c2,.11,4,.29,6,.46a75.53,75.53,0,0,0,8.87.7c.53,0,1.86,0,1.17-.56s-2.69-.25-3.53-.32c-1.52-.12-3-.21-4.57-.37s-1-.48-1.27-1.79a17.92,17.92,0,0,1-.27-2.92c3.41-.38,6.82-.88,10.23-.92.41,0,1-.64.36-.63-3.33,0-6.66.56-10,.9-2.09.21-4.25.4-6.36.49a10.36,10.36,0,0,1-3.38,0c-.51-.15-.79-.53-1.37-.35a.86.86,0,0,0-.59.52,1.61,1.61,0,0,0-.37.12c0-5.61-.24-11.24-.07-16.84l0,0c0-.1,0-.17,0-.21,0-.43,0-.86,0-1.29a.2.2,0,0,0-.08-.19,3.63,3.63,0,0,0-.36-1.81c-.77-1.27-3.45.47-4.54-.22a.53.53,0,0,0-.34,0,56.75,56.75,0,0,1,.93-9.14c.21-1.15.6-4,2.09-4.24-.26,0-.3,1.77-.29,2a5.17,5.17,0,0,0,.64,2.13,13.67,13.67,0,0,0,3,3.55A15.09,15.09,0,0,0,47,109.72a6.45,6.45,0,0,0-3.38,2.54,5.18,5.18,0,0,0-.75,4.38,3,3,0,0,0,1.26,1.57c1.26,2.85,5.05,2.51,7.51,1.16a5.44,5.44,0,0,0,2.89-3.7c.37-2.08-1.19-4-2.74-5.15l-.21-.14c5.42.21,10.82-1.75,12.22-7.65l0-.06.06-.14a.28.28,0,0,0,.08-.15l0-.13A.28.28,0,0,0,64,102c1-1.24,4.74-.75,6.33-.54v0c-.1,2.91-1.87,6-.66,8.9,0,0,0,0,0,0C67.61,110.59,65.56,110.68,63.52,110.69Zm-13.77,26.2-.29,0-3.17-.25v-.37a.23.23,0,0,0-.08-.16c-.05-.37-.1-.74-.16-1.11a3.47,3.47,0,0,1,0-2.09c.76-.1,1.39-.18,1.74-.21l1.85-.17a15.69,15.69,0,0,1,.11,3.86A1.36,1.36,0,0,0,49.75,136.89ZM94.26,96.22a21.67,21.67,0,0,1-2.09,5.22,9.39,9.39,0,0,1-4.34,3.6,72.27,72.27,0,0,1-10.7,3.87,38.69,38.69,0,0,1-7,1.42.31.31,0,0,0,0-.31c-1.11-2.64.63-5.8.74-8.53,2.6.31,5.11.81,7.72.87,3.77.09,7.66-.26,9.26-4.16.76-1.87.85-3.92,1.64-5.78.24-.58.49-1.15.73-1.72a14.38,14.38,0,0,0,2.27-3.55,1.25,1.25,0,0,0,1.17-.43,1.16,1.16,0,0,0,1-.85l.25-.94a1.25,1.25,0,0,0,.46-.19A29.52,29.52,0,0,1,94.26,96.22ZM101,51.55a12.88,12.88,0,0,1-6.38,3,.36.36,0,0,0-.32.35.37.37,0,0,0,.26.38A10.54,10.54,0,0,1,99.05,58a8.56,8.56,0,0,1,2.7,4.6c.27,1.87-1,3.7-2.25,4.8A6.69,6.69,0,0,1,95.72,69a3.85,3.85,0,0,0-1.14-.15.37.37,0,0,0-.25.1.35.35,0,0,0-.22.08.46.46,0,0,0-.13.32v.09a.39.39,0,0,0,.36.33.75.75,0,0,0,.28,0,5.66,5.66,0,0,0,1,0,5.7,5.7,0,0,1,3.62,3.68,3,3,0,0,1-.73,2.94,4.89,4.89,0,0,1-4.68,1,5.22,5.22,0,0,1-.56-.18,16.54,16.54,0,0,0-4.13-6.51,2.15,2.15,0,0,1,.24-.18,8,8,0,0,1,1.77-.66l.52-.15a.36.36,0,0,0,.25-.28.37.37,0,0,0-.15-.38,18.46,18.46,0,0,1-5.08-4.73,4.2,4.2,0,0,1-.7-2.86,4.13,4.13,0,0,1,1.38-2.24,13.42,13.42,0,0,0,1.46.12c2.4.06,3.9-.61,4.32-1.95a.36.36,0,0,0,0-.29.39.39,0,0,0-.69.05c-.34,1.09-1.7,1.56-4,1.42H88.2l0,0a.38.38,0,0,0,.15-.36.4.4,0,0,0-.6-.24,8,8,0,0,0-.64.51,22.55,22.55,0,0,1-3.74-1c-1.65-.56-4-1.51-4.94-3.32a7.05,7.05,0,0,1-.76-3.06,2,2,0,0,0,.19-2c.06-.23.13-.46.2-.68a.37.37,0,1,0-.7-.26c-.07.2-.14.42-.2.66a.34.34,0,0,0-.1.16.32.32,0,0,0,0,.27A7.36,7.36,0,0,0,77,50.92a6.81,6.81,0,0,1-.78.89,16.32,16.32,0,0,1-2.36,1.88,16,16,0,0,1-7.72,2.65,16.4,16.4,0,0,1-7.71-1.48,24.9,24.9,0,0,1-6.78-4.26A15.81,15.81,0,0,1,45.92,37c.65-5.17,4.71-9.34,9.44-9.7a6.74,6.74,0,0,1,2.25.21,5.54,5.54,0,0,1,3.47,2.63,5.78,5.78,0,0,1,.65,3.81c-.21,1.17-1.13,2-2.73,2.38a.38.38,0,0,0-.28.37A.37.37,0,0,0,59,37a.41.41,0,0,0,.19,0,4.6,4.6,0,0,0,2.77-1.69,4.68,4.68,0,0,0,.57-3.17,6.27,6.27,0,0,0-3.71-5.09,7.69,7.69,0,0,0-1-.37c-4.14-1.1-8.51,1.65-10.68,4.93C44.52,35.5,44.4,41,46.77,45.7c2.12,4.17,6.19,7.69,11.49,9.91a17.82,17.82,0,0,0,6.21,1.51A16.61,16.61,0,0,0,71.05,56a17.59,17.59,0,0,0,5.08-3.09A11.3,11.3,0,0,0,77,52a7.64,7.64,0,0,0,.77,2.52c1,2,3.38,3,5.35,3.7a23.64,23.64,0,0,0,3.32.9,4.74,4.74,0,0,0-1.16,2,4.39,4.39,0,0,0,.47,3.12c1.09,2.15,3.22,3.77,4.93,5A7,7,0,0,0,88.9,70a2.26,2.26,0,0,0-.29.23c-5.39-5.11-14-8.37-21.23-9.09a1.32,1.32,0,0,0-.55-.22,13.51,13.51,0,0,0-5.68.31c-3.06.47-5.43,1.65-6.49,3.65a12.88,12.88,0,0,0-7.51-1.78,3.33,3.33,0,0,1,0-.55,1.14,1.14,0,0,0-.41-.88C45,52.22,28.65,47.86,16.55,50.29a8.5,8.5,0,0,0,0-1,3.82,3.82,0,0,0-.47-1.67l.55,0a5.46,5.46,0,0,0,2.44-.58,4.3,4.3,0,0,0,2.48-2.46,15,15,0,0,0,1.22.87,20.65,20.65,0,0,0,5.88,2.67,15.28,15.28,0,0,0,4.86.52,12.08,12.08,0,0,0,6.84-3,9.81,9.81,0,0,0,2.46-3.21,8,8,0,0,0,.62-2,6.26,6.26,0,0,0,.11-1.16v-.18h.07a.35.35,0,0,0,.29-.35.36.36,0,0,0-.27-.38h-.16a.34.34,0,0,1-.19,0,.4.4,0,0,0-.36.13.75.75,0,0,0-.14.64.76.76,0,0,1,0,.15,7.87,7.87,0,0,1-.07.93,7.18,7.18,0,0,1-.6,2,8.86,8.86,0,0,1-2.49,3.14,11.23,11.23,0,0,1-6.39,2.61A17.68,17.68,0,0,1,22.4,44.31c-1.71-1.23-5.67-4.59-5.39-9.17a7.45,7.45,0,0,1,2.37-4.48c.57-.56,2-1.83,3.44-1.45a2.16,2.16,0,0,1,.82.43,2.63,2.63,0,0,1,.84,2.65,3.31,3.31,0,0,1-2.21,2.49.36.36,0,0,0-.27.37.35.35,0,0,0,.26.35.41.41,0,0,0,.19,0,4.07,4.07,0,0,0,2.75-4.78A3.08,3.08,0,0,0,23,28.49a3,3,0,0,0-1.65,0,8.06,8.06,0,0,0-4,3.5,6.84,6.84,0,0,0-1,4.71c.42,3.26,2.68,5.78,4.55,7.34,0,.91-.78,1.69-2.25,2.37a4.76,4.76,0,0,1-2.38.44,13.83,13.83,0,0,1-5-1.34c-1.93-.9-3.05-2-3.34-3.23a3.43,3.43,0,0,1,.86-2.71,5.09,5.09,0,0,1,3.55-1.81.35.35,0,0,0,.33-.33.38.38,0,0,0-.28-.4.29.29,0,0,0-.13,0c-2.19.17-4.72,1.76-5.1,4.35-.2,1.33.54,2.68,2.07,3.81a12.78,12.78,0,0,0,4.27,1.94l.7.17c.23.06.46.1.69.14l0,0c.54.25.83.87.91,1.95a8.57,8.57,0,0,1,0,1,23.4,23.4,0,0,0-5.68,2,1.43,1.43,0,0,0-.65-.21c-1.45-.11-2.89-.11-4.33-.21a1.2,1.2,0,0,0-.51.06,1.26,1.26,0,0,0-.27,0,4.44,4.44,0,0,1-.17-1.22,5.35,5.35,0,0,1,1-3.3,3.53,3.53,0,0,1,1.34-1.09,3.06,3.06,0,0,1,1.68-.31l.11,0A.37.37,0,0,0,8.73,46a.38.38,0,0,0-.22-.47h0s0,0,0-.06a.37.37,0,0,0-.36-.41,5.59,5.59,0,0,1-1.47-.19C3.93,44.16,2.56,41.54,2,40a16.82,16.82,0,0,1-1.15-8A9.87,9.87,0,0,1,4.5,25.46a9.23,9.23,0,0,1,8.06-1.85l.09,0a8,8,0,0,1,1.86.81l.1,0a.36.36,0,0,0,.37-.1.38.38,0,0,0,.08-.38c-1.09-3.42.5-8,3.53-10.28a14.05,14.05,0,0,1,3.88-2,4.65,4.65,0,0,1,2.5-.23,1.84,1.84,0,0,1,1.24,1,.37.37,0,0,0,.63.07.35.35,0,0,0,.06-.27.35.35,0,0,0,.14-.25c.27-2.73,2.14-5.27,3.53-6.94a11.61,11.61,0,0,1,6-4,13.52,13.52,0,0,1,7,.12,21.65,21.65,0,0,1,6.85,3.32,12.15,12.15,0,0,1,3.88,4.35.39.39,0,0,0,.54.15A.44.44,0,0,0,55,8.81c.31-2,1.91-3.28,4.78-3.86a19.72,19.72,0,0,1,3.28-.33,20.61,20.61,0,0,1,4.63.23c.46.08.93.19,1.4.31a34.16,34.16,0,0,1,7,3A37.59,37.59,0,0,1,82.8,12.5a25.33,25.33,0,0,1,6.73,8.64,24.61,24.61,0,0,1,2,5.8,31.16,31.16,0,0,1,.46,6.2.39.39,0,0,0,.28.38h.17a9,9,0,0,1,6.17,1.25,14.39,14.39,0,0,1,5,4.54,8,8,0,0,1,1.34,6.21A11.38,11.38,0,0,1,101,51.55Z"/><path class="cls-18" d="M46.62,6.42a12.58,12.58,0,0,1,1.55.3A4.46,4.46,0,0,1,50.89,8.4a.37.37,0,0,0,.21.16.39.39,0,0,0,.36-.11.41.41,0,0,0,.09-.38,8.87,8.87,0,0,0-6.41-5.9,11.17,11.17,0,0,0-3.65-.34,9.69,9.69,0,0,0-6,2.6c-1.76,1.72-2.59,4.07-3.4,6.33L31.62,12a.16.16,0,0,0,0,.09.36.36,0,0,0-.05.3.39.39,0,0,0,.2.25,1.52,1.52,0,0,1,.28.19,1.65,1.65,0,0,0,.5.29h0a.38.38,0,0,0,.45-.23c.06-.16.11-.35.18-.54.31-1.05.61-1.85,1.36-1.82a.36.36,0,0,0,.37-.27c.36-1.33,1.75-2.14,2.91-2.69a16,16,0,0,1,4.45-1.31A15.35,15.35,0,0,1,46.62,6.42ZM34.79,8.92a3.09,3.09,0,0,0-.52.94h-.09l-.22,0a1.84,1.84,0,0,0-.55.35,3.64,3.64,0,0,0-.88,1.68.22.22,0,0,0-.05-.08c.1-.25.19-.51.28-.76a17.45,17.45,0,0,1,3-5.9,8.78,8.78,0,0,1,5.67-2.61,9.71,9.71,0,0,1,3.48.28,8.44,8.44,0,0,1,5.21,3.84A6.6,6.6,0,0,0,48.37,6a16.26,16.26,0,0,0-2.57-.42,16.49,16.49,0,0,0-3-.08A15.26,15.26,0,0,0,40,6C38.38,6.48,36.1,7.26,34.79,8.92Z"/><path class="cls-18" d="M24.56,12.09a5.92,5.92,0,0,0-5.92,2.37,4.52,4.52,0,0,0-.54,3.15c0,.59.22,1.59.78,1.74l.17,0s0,.08,0,.13a.34.34,0,0,0,.27.3.35.35,0,0,0,.35-.08.37.37,0,0,0,.13-.33,3.44,3.44,0,0,1,.8-2.78,1.35,1.35,0,0,1,1.28-.26,2.82,2.82,0,0,1,.37.13.34.34,0,0,0,.32-.07.36.36,0,0,0,.15-.28,2.41,2.41,0,0,1,1-1.91,2.49,2.49,0,0,1,2.13-.44l.19.06a.38.38,0,0,0,.42-.17.36.36,0,0,0,0-.43A3.58,3.58,0,0,0,24.56,12.09Zm-1.34,1.56a3.24,3.24,0,0,0-1.2,2,2,2,0,0,0-1.73.31,3.59,3.59,0,0,0-1.24,2.57,5.66,5.66,0,0,1-.24-1.65,3.07,3.07,0,0,1,.66-2.24,5.11,5.11,0,0,1,4.89-1.78,3.24,3.24,0,0,1,.47.16A3.27,3.27,0,0,0,23.22,13.65Z"/><path class="cls-18" d="M37.66,79.56a.48.48,0,0,0,0,1A.48.48,0,0,0,37.66,79.56Z"/><path class="cls-18" d="M40.3,78.68a.48.48,0,0,0,0,1A.48.48,0,0,0,40.3,78.68Z"/><path class="cls-18" d="M35.68,82.63a.48.48,0,0,0,0,1A.48.48,0,0,0,35.68,82.63Z"/><path class="cls-18" d="M67.63,78.47a.48.48,0,0,0,.1-1A.48.48,0,0,0,67.63,78.47Z"/><path class="cls-18" d="M76.1,83.65a.44.44,0,0,0,.48-.29.92.92,0,0,0,.75.69l.2,0a1.44,1.44,0,0,0,.75.22c2,.1,4.46-2.81,3.44-4.86a1.13,1.13,0,0,0-.69-.56,0,0,0,0,1,0,0c0-1.13-1.1-1.28-2.06-1s-1.53,1.34-1.88,2.37a3,3,0,0,0-.47,1.61h0a4.92,4.92,0,0,0-.1,1,.5.5,0,0,0-.29-.15A.48.48,0,0,0,76.1,83.65Zm3.2-5.35c.39-.25.56-.11.62.16a2.58,2.58,0,0,0-.69.05l-.29.11A1.53,1.53,0,0,1,79.3,78.3Zm-1,2.38A5.23,5.23,0,0,1,79,79.43a.17.17,0,0,1,.25.1,1.68,1.68,0,0,0-.34.87,2.4,2.4,0,0,0-.76.86C78.18,81.05,78.24,80.85,78.29,80.68Z"/><path class="cls-18" d="M71.06,81.3a.48.48,0,0,0,.11-1A.48.48,0,0,0,71.06,81.3Z"/><path class="cls-18" d="M66.57,81.89l.22,0a.48.48,0,0,0,.11-1l-.22,0A.48.48,0,0,0,66.57,81.89Z"/><path class="cls-19" d="M38,37.7c.05,3.22-2.51,7.24-5.71,8.06-2.82.72-6.13-1.46-8.19-3.12a14.75,14.75,0,0,1-5-7,3.69,3.69,0,0,1,.6-3.27c.07-.11,2.61-2.63,2-.31-.15.6-.38,1.15-.47,1.76-.32,2,2.69,2.82,3,.83s1.47-3.92-.24-5.65c-1.56-1.57-3.47-1.49-5.2-.2-4.44,3.27-3.13,8.52-.4,12.41,2.92,4.14,7.82,7.65,13,7.8,5.39.16,9.73-6.35,9.66-11.26C41.11,35.69,38,35.69,38,37.7Z"/><path class="cls-19" d="M25.92,12.39c-4.49-1.26-9.1,3.07-9.28,7.46-.09,2,3,2,3.13,0,.1-2.38,2.85-5.14,5.32-4.45A1.56,1.56,0,0,0,25.92,12.39Z"/><path class="cls-19" d="M15.79,44.2c-1.85,1.07-3.93.09-5.1-1.54-1.5-2.09-.54-4.07,1.54-5.23,1.76-1,.18-3.68-1.58-2.7-3.52,2-4.86,5.72-2.82,9.23C5.8,42.12,4.57,37.81,4,35.9c-1.8-6.39,4.59-10.47,10.23-8.32,1.89.72,2.7-2.31.83-3C7.9,21.81.2,26.84.67,34.63c.2,3.23,2.19,9.33,5.49,12a4.62,4.62,0,0,0-.8.53C3.56,48.65,4,51,5,52.83s3.67.19,2.7-1.58a2.77,2.77,0,0,1-.45-1.43c0,.06,0-.06.07-.16-.09.09-.07.07.06-.07l.07-.08.14-.08A5.29,5.29,0,0,1,10.63,49a1.37,1.37,0,0,0,1.49-1.59,6.48,6.48,0,0,0,5.25-.52A1.56,1.56,0,0,0,15.79,44.2Z"/><path class="cls-19" d="M74.81,46.09c-.68,6.21-7.32,8.44-12.65,7.62a17.4,17.4,0,0,1-11.25-6.49,14.39,14.39,0,0,1-2-13.07,6.42,6.42,0,0,1,5.33-4.58,5,5,0,0,1,4.18,2.07c.72,1.08-.48,2.8-1,3.65a1.56,1.56,0,0,0,2.69,1.58c1.37-2.29,2.52-5.43.37-7.68s-6-3.56-9.15-2.13c-6.72,3.06-7.36,12-5.1,18.06,2.47,6.71,9.07,10.67,15.88,11.73,7.26,1.12,15-3,15.8-10.76C78.15,44.09,75,44.11,74.81,46.09Z"/><path class="cls-19" d="M91.42,38.77a1.47,1.47,0,0,0,.85-1.34A31.16,31.16,0,0,0,80.89,11.61a24.72,24.72,0,0,0-7-4.49l-.1,0a23.16,23.16,0,0,0-9.63-2.34,13.66,13.66,0,0,0-5.92.88,11.18,11.18,0,0,0-2.33,1.14,17.22,17.22,0,0,0-2,1.44,1.26,1.26,0,0,0-.4,1.58,1.41,1.41,0,0,0,0,.5,8.47,8.47,0,0,0-2.22-.39,6.91,6.91,0,0,0-.91,0,1.37,1.37,0,0,0-.23-.57c-2.5-3.88-5.56-7.09-10.55-5.89-3.87.92-7.93,4.18-8.32,8.3-.19,2,2.94,2,3.13,0,.26-2.77,3.69-4.55,6-5.29,3.33-1.06,5.39,1.93,6.94,4.32a5.8,5.8,0,0,0-2.27,2.11,3.89,3.89,0,0,0-4.85.21c-2.47,2-2.25,5.26-.4,7.6,1.25,1.59,3.45-.64,2.21-2.21a2.1,2.1,0,0,1,0-2.86c1.16-1.32,2.75,1.07,3.21,1.78,1.09,1.68,3.74.17,2.7-1.58-1.72-2.9,3.65-2.9,5-2.55,1.15.3,1.47,1.59,1.56,2.8a1.49,1.49,0,0,0,0,2.19l.54.54a1.58,1.58,0,0,0,2.67-1.11c0-2.61-.58-4.75-2-6.13a1.41,1.41,0,0,0,.45-.34A10.6,10.6,0,0,1,63,7.85a18.63,18.63,0,0,1,3.4.27C75.24,10.4,83.65,21.65,86,28.92a1.6,1.6,0,0,0,2.52.76c.17.78.31,1.58.41,2.38-3.43-.43-7.52,2.34-7,5.92.26,2,3.39,2,3.13,0-.19-1.43.48-1.93,1.73-2.38a7.52,7.52,0,0,1,1.62-.33,1.35,1.35,0,0,0,.46-.11.49.49,0,0,0-.11.22A12.07,12.07,0,0,1,86.36,39a1.58,1.58,0,0,0,1.52,2.62c1.62-.35,3.64-.42,3.21,1.85S88,46,86.11,45.88s-2,3,0,3.13c3.8.3,8-1.46,8.19-5.83A4.08,4.08,0,0,0,91.42,38.77Z"/><path class="cls-19" d="M106.39,43.1c-.79-5.07-6.84-9.69-11.89-9.66a1.56,1.56,0,0,0,0,3.12c3.43,0,8,3.32,8.77,6.7s-5.71,5.9-7.94,7.43a1.6,1.6,0,0,0-.68,1.07l-.3.13a1.4,1.4,0,0,0-.3.15,1.31,1.31,0,0,0-.93.52c-3.63,4.42-15.64.67-11.61-5.14,1.15-1.66-1.56-3.22-2.7-1.58-4.23,6.09,2.22,11.31,8.62,11.8-2.19,2.94.2,6.91,3.49,9.09a3.28,3.28,0,0,0-2.13,4c.36,1.76,1.85,3.33,3,4.65,1.32,1.54,3.52-.69,2.22-2.21a16.22,16.22,0,0,1-1.86-2.5,2.23,2.23,0,0,1-.32-.88,2.28,2.28,0,0,1,.68-.23A1.39,1.39,0,0,0,93.59,68l.49.14a1.6,1.6,0,0,0,.57,0l-.13.09c-1.7,1.07-.13,3.77,1.58,2.7,2.93-1.85,6.31-6.15,5.32-9.88s-3.84-4.2-6.66-5.7c.16-.16.31-.34.47-.51a29.89,29.89,0,0,0,9-5.53,1.3,1.3,0,0,0,.47-1.33A5.72,5.72,0,0,0,106.39,43.1ZM97.67,60.29c2,1.86.1,5-1.74,6.83a1.44,1.44,0,0,0-1-2c-2.6-.61-7.74-4.48-3.68-6.61A1.33,1.33,0,0,0,92,57.39l.08.06C93.83,58.61,96.12,58.82,97.67,60.29Z"/><path class="cls-20" d="M46.76,130.08c-1.73-.64-3.54-.48-5.33-.65.34-6.33,3.48-20.86-4.81-21.3.1-1.57.27-3.13.46-4.68a1.66,1.66,0,0,0,0-.45,1.58,1.58,0,0,0,.55-1.18v-1.35a1.56,1.56,0,1,0-3.12,0v1.35a1.71,1.71,0,0,0,.09.51,1.65,1.65,0,0,0-.64,1.12,58.65,58.65,0,0,0-.53,6.76,1.57,1.57,0,0,0,2.72,1c5.41.05,2,16.19,2.15,19.53a1.7,1.7,0,0,0,.64,1.28c-.07.3-.12.61-.17.91a1.52,1.52,0,0,0-.21.79V137A1.44,1.44,0,0,0,39,138.1a1.35,1.35,0,0,0-.14.37,35.35,35.35,0,0,0-.51,9.47c.18,4.1.15,8.15,0,12.25a118.56,118.56,0,0,0-.06,13.33,25.38,25.38,0,0,0,1.35,6.07,25.46,25.46,0,0,0,1.68,8.95,1.57,1.57,0,0,0,3,0,12.72,12.72,0,0,0,.6-4.47,1.41,1.41,0,0,0-1.08-1.44c-.84-3-2.08-6-2.44-9.11a79,79,0,0,1,0-12.11c.16-3.8.34-7.59.18-11.39-.15-3.58-.51-7.2.3-10.72a1.5,1.5,0,0,0-.45-1.48,1.56,1.56,0,0,0,.23-.83,18.93,18.93,0,0,1,.34-4.45,12.75,12.75,0,0,1,3.91.55C47.82,133.79,48.63,130.77,46.76,130.08Z"/><path class="cls-20" d="M57.56,185.27c.92-.22.72.35.46-.8a15.08,15.08,0,0,1-.26-2c-.16-1.83-.16-3.67-.19-5.5a41.42,41.42,0,0,0-.17-7.11,15.62,15.62,0,0,0,.51-2.81,1.58,1.58,0,0,0-2.35-1.36A20.62,20.62,0,0,0,52,168.35a1.22,1.22,0,0,0-.41.71.63.63,0,0,0-.13.11,1.57,1.57,0,0,0,0,2.21,2.53,2.53,0,0,0,.76.49c0,.1.06.19.1.29a9.85,9.85,0,0,0,1.06,2.69,1.43,1.43,0,0,0,.92.69c-.07,6,0,13.69,4.09,12.74C60.35,187.83,59.52,184.81,57.56,185.27Z"/></g></g></svg>